<?xml version="1.0" encoding="UTF-8"?>
<svg id="Layer_1" data-name="Layer 1" xmlns="http://www.w3.org/2000/svg" version="1.1" viewBox="0 0 650 650">
  <defs>
    <style>
      .cls-1 {
        fill: #fff;
        stroke-width: 0px;
      }
    </style>
  </defs>
  <path class="cls-1" d="M339.56,467.77c36.32-134.11,108.51-151.58,138.25-197.25,43.07-66.06,30.35-124.76,30.35-124.76-13.03,103.61-83.99,119.7-148.97,204.3-15.94,20.69-26.82,48.13-34.18,78.63-7.36-30.65-18.39-58.09-34.18-78.63-64.98-84.6-135.95-100.85-148.97-204.3,0,0-12.72,58.55,30.35,124.76,29.73,45.67,101.77,63.76,138.25,197.25"/>
  <path class="cls-1" d="M488.53,129.82c-11.65,92.57-74.95,106.98-133.03,182.54-14.1,18.39-23.91,42.91-30.65,70.35-6.59-27.28-16.4-51.8-30.65-70.35-58.09-75.56-121.39-89.97-133.03-182.54,0,0-11.34,52.42,27.13,111.42,36.32,55.79,119.39,64.37,136.56,356.65,17.32-292.28,100.24-300.86,136.56-356.65,38.47-59.01,27.13-111.42,27.13-111.42h0Z"/>
  <path class="cls-1" d="M242.24,141.77c-1.38.92-2.45,2.45-2.45,4.29,0,2.15,1.38,3.98,3.22,4.75l-6.9,19.31h17.63l-6.9-19.31c1.84-.77,3.22-2.61,3.22-4.75,0-1.84-.92-3.37-2.45-4.29v-25.14l33.11-13.33-27.89,15.63,23.6,10.42v14.41c-7.66,10.42-12.26,23.45-12.26,37.4,0,34.94,28.35,63.3,63.3,63.3s63.3-28.35,63.3-63.3c0-14.1-4.6-27.13-12.41-37.55v-14.1l55.48-26.36-104.37-51.04-114.18,50.58,26.67,11.8v27.59l.31-.31Z"/>
</svg>