<?xml version="1.0" encoding="UTF-8"?>
<svg id="Layer_1" data-name="Layer 1" xmlns="http://www.w3.org/2000/svg" version="1.1" viewBox="0 0 35 35">
  <defs>
    <style>
      .cls-1 {
        fill: #fff;
        stroke-width: 0px;
      }
    </style>
  </defs>
  <path class="cls-1" d="M18.37,26.05c2.18-8.03,6.5-9.08,8.28-11.82,2.58-3.96,1.82-7.47,1.82-7.47-.78,6.21-5.03,7.17-8.92,12.24-.95,1.24-1.61,2.88-2.05,4.71-.44-1.84-1.1-3.48-2.05-4.71-3.89-5.07-8.14-6.04-8.92-12.24,0,0-.76,3.51,1.82,7.47,1.78,2.74,6.1,3.82,8.28,11.82"/>
  <path class="cls-1" d="M27.3,5.81c-.7,5.55-4.49,6.41-7.97,10.93-.84,1.1-1.43,2.57-1.84,4.21-.39-1.63-.98-3.1-1.84-4.21-3.48-4.53-7.27-5.39-7.97-10.93,0,0-.68,3.14,1.62,6.67,2.18,3.34,7.15,3.86,8.18,21.36,1.04-17.51,6-18.02,8.18-21.36,2.3-3.53,1.62-6.67,1.62-6.67h0Z"/>
  <path class="cls-1" d="M12.54,6.52c-.08.06-.15.15-.15.26,0,.13.08.24.19.28l-.41,1.16h1.06l-.41-1.16c.11-.05.19-.16.19-.28,0-.11-.06-.2-.15-.26v-1.51l1.98-.8-1.67.94,1.41.62v.86c-.46.62-.73,1.4-.73,2.24,0,2.09,1.7,3.79,3.79,3.79s3.79-1.7,3.79-3.79c0-.84-.28-1.62-.74-2.25v-.84l3.32-1.58-6.25-3.06-6.84,3.03,1.6.71v1.65l.02-.02Z"/>
</svg>