<?xml version="1.0" encoding="UTF-8"?>
<svg id="Layer_2" data-name="Layer 2" xmlns="http://www.w3.org/2000/svg" viewBox="0 0 221.34 46.17">
  <defs>
    <style>
      .cls-1 {
        fill: #29609c;
      }

      .cls-1, .cls-2, .cls-3 {
        stroke-width: 0px;
      }

      .cls-4 {
        opacity: .54;
      }

      .cls-2 {
        fill: #e96228;
      }

      .cls-3 {
        fill: #fff;
      }
    </style>
  </defs>
  <g id="Layer_1-2" data-name="Layer 1-2">
    <g>
      <g class="cls-4">
        <path class="cls-3" d="M31.61,44.28c-.06,0-.1-.02-.14-.06s-.06-.08-.06-.14v-5.05h-1.65c-.06,0-.1-.02-.14-.06s-.06-.08-.06-.14v-.36c0-.06.02-.11.06-.15s.08-.06.14-.06h4.14c.06,0,.11.02.15.06s.06.09.06.15v.36c0,.06-.02.1-.06.14s-.09.06-.15.06h-1.64v5.05c0,.06-.02.1-.06.14s-.09.06-.15.06h-.45Z"/>
        <path class="cls-3" d="M34.12,44.28c-.06,0-.1-.02-.14-.06s-.06-.08-.06-.14v-4.07c0-.06.02-.11.06-.15s.08-.06.14-.06h.39c.06,0,.11.02.15.06.04.04.06.09.06.15v.38c.11-.19.28-.34.47-.44.2-.1.44-.15.73-.15h.34c.06,0,.1.02.14.06s.06.08.06.14v.35c0,.06-.02.1-.06.14s-.08.06-.14.06h-.51c-.31,0-.55.09-.73.27-.17.18-.27.42-.27.73v2.52c0,.06-.02.1-.06.14-.04.04-.09.06-.15.06h-.42v.02Z"/>
        <path class="cls-3" d="M38.02,44.37c-.28,0-.55-.06-.78-.17-.24-.11-.42-.27-.57-.47-.15-.19-.21-.41-.21-.66,0-.39.16-.71.48-.95.32-.24.74-.39,1.26-.47l1.28-.18v-.25c0-.28-.08-.49-.24-.64-.16-.16-.41-.23-.77-.23-.26,0-.47.06-.62.16-.16.1-.27.24-.33.39-.04.08-.09.13-.18.13h-.39c-.06,0-.11-.02-.14-.06-.03-.04-.05-.08-.05-.14,0-.08.04-.19.1-.32s.17-.25.3-.37.31-.22.53-.3c.21-.08.48-.13.79-.13.34,0,.63.05.87.14.24.09.42.21.55.36.14.15.23.32.29.5.06.19.09.39.09.58v2.78c0,.06-.02.1-.06.14s-.08.06-.14.06h-.39c-.06,0-.11-.02-.15-.06s-.06-.08-.06-.14v-.37c-.07.1-.17.2-.3.3-.13.1-.28.18-.47.25-.19.06-.42.1-.7.1h0ZM38.2,43.73c.24,0,.45-.05.64-.15s.35-.26.46-.47.17-.48.17-.8v-.24l-1,.15c-.4.06-.72.16-.92.28-.2.14-.31.3-.31.51,0,.16.05.29.14.4.09.11.21.18.36.24.15.06.29.07.45.07h.02Z"/>
        <path class="cls-3" d="M41.37,44.28c-.06,0-.1-.02-.14-.06s-.06-.08-.06-.14v-4.08c0-.06.02-.1.06-.14s.08-.06.14-.06h.4c.06,0,.1.02.14.06s.06.08.06.14v.38c.15-.19.34-.36.56-.48.23-.12.51-.18.87-.18s.69.08.95.25.46.39.59.68c.13.29.2.62.2,1.01v2.42c0,.06-.02.1-.06.14s-.08.06-.14.06h-.43c-.06,0-.1-.02-.14-.06s-.06-.08-.06-.14v-2.38c0-.4-.1-.72-.29-.95s-.48-.34-.86-.34c-.36,0-.64.11-.85.34s-.32.54-.32.95v2.38c0,.06-.02.1-.06.14s-.08.06-.14.06h-.43,0Z"/>
        <path class="cls-3" d="M47.58,44.37c-.32,0-.6-.04-.83-.12s-.41-.17-.56-.29c-.15-.11-.25-.23-.32-.34-.07-.11-.11-.2-.12-.28,0-.06.02-.11.06-.15s.09-.06.14-.06h.38s.06,0,.08,0c.02,0,.05.04.08.07.07.08.16.16.25.24.09.08.2.15.34.2.14.06.3.07.5.07.29,0,.53-.06.73-.17s.28-.28.28-.5c0-.15-.04-.26-.12-.34s-.21-.17-.41-.23-.47-.14-.81-.21c-.34-.08-.62-.17-.82-.29s-.34-.26-.43-.42-.13-.35-.13-.55.06-.41.19-.62c.13-.2.31-.36.55-.49.25-.13.55-.19.92-.19.29,0,.55.04.76.11.21.07.39.17.52.28s.24.22.31.33c.06.11.11.2.11.28,0,.06,0,.1-.06.14-.04.04-.08.06-.14.06h-.36s-.07,0-.1-.03-.05-.04-.07-.06c-.06-.07-.13-.15-.2-.22s-.17-.14-.3-.18c-.12-.05-.28-.07-.49-.07-.28,0-.5.06-.64.18-.15.12-.21.28-.21.46,0,.11.03.2.09.29.06.08.18.17.36.23s.44.15.79.22c.38.07.68.17.89.3.22.13.38.28.47.44s.14.36.14.58c0,.24-.07.46-.21.66-.14.2-.35.36-.62.48-.28.12-.61.17-1.01.17h0Z"/>
        <path class="cls-3" d="M50.71,44.28c-.06,0-.1-.02-.14-.06s-.06-.08-.06-.14v-3.58h-.73c-.06,0-.1-.02-.14-.06s-.06-.08-.06-.14v-.29c0-.06.02-.1.06-.14s.08-.06.14-.06h.73v-.43c0-.29.05-.55.15-.77s.26-.39.47-.51.5-.18.86-.18h.51c.06,0,.1.02.14.06s.06.08.06.14v.29c0,.06-.02.1-.06.14s-.08.06-.14.06h-.5c-.27,0-.45.07-.55.21-.1.14-.15.34-.15.61v.39h1.11c.06,0,.1.02.14.06s.06.08.06.14v.29c0,.06-.02.1-.06.14s-.08.06-.14.06h-1.11v3.58c0,.06-.02.1-.06.14s-.08.06-.14.06h-.4v.02Z"/>
        <path class="cls-3" d="M54.73,44.37c-.59,0-1.06-.18-1.41-.54-.35-.37-.54-.86-.58-1.49v-.57c.02-.4.12-.76.28-1.07.17-.3.39-.54.68-.71.29-.17.62-.25,1.02-.25.43,0,.8.09,1.09.28s.52.44.67.78c.16.34.23.73.23,1.18v.15c0,.06-.02.11-.06.15s-.08.06-.14.06h-2.97v.07c0,.24.06.45.16.66.09.2.22.37.39.5s.38.19.62.19c.2,0,.38-.03.51-.09s.25-.14.34-.21.15-.14.17-.17c.06-.07.09-.12.12-.14.03-.02.07-.02.14-.02h.41c.06,0,.1.02.14.05s.06.07.05.14c0,.08-.06.19-.14.31s-.21.25-.37.37c-.16.12-.36.22-.59.29-.23.07-.5.12-.79.12l.02-.03ZM53.56,41.73h2.36v-.03c0-.26-.05-.49-.14-.69-.09-.2-.23-.36-.4-.48s-.39-.17-.63-.17-.46.06-.63.17c-.17.12-.31.28-.4.48s-.14.43-.14.69v.03h0Z"/>
        <path class="cls-3" d="M57.61,44.28c-.06,0-.1-.02-.14-.06s-.06-.08-.06-.14v-4.07c0-.06.02-.11.06-.15s.08-.06.14-.06h.39c.06,0,.11.02.15.06.04.04.06.09.06.15v.38c.11-.19.28-.34.47-.44.2-.1.44-.15.73-.15h.34c.06,0,.1.02.14.06s.06.08.06.14v.35c0,.06-.02.1-.06.14s-.08.06-.14.06h-.51c-.31,0-.55.09-.73.27-.17.18-.27.42-.27.73v2.52c0,.06-.02.1-.06.14-.04.04-.09.06-.15.06h-.42v.02Z"/>
        <path class="cls-3" d="M60.54,44.28c-.06,0-.1-.02-.14-.06s-.06-.08-.06-.14v-4.07c0-.06.02-.11.06-.15s.08-.06.14-.06h.39c.06,0,.11.02.15.06.04.04.06.09.06.15v.38c.11-.19.28-.34.47-.44.2-.1.44-.15.73-.15h.34c.06,0,.1.02.14.06s.06.08.06.14v.35c0,.06-.02.1-.06.14s-.08.06-.14.06h-.51c-.31,0-.55.09-.73.27-.17.18-.27.42-.27.73v2.52c0,.06-.02.1-.06.14-.04.04-.09.06-.15.06h-.42v.02Z"/>
        <path class="cls-3" d="M63.38,38.98c-.06,0-.1-.02-.14-.06s-.06-.08-.06-.14v-.47c0-.06.02-.1.06-.14s.08-.06.14-.06h.54c.06,0,.1.02.14.06s.06.08.06.14v.47c0,.06-.02.1-.06.14s-.08.06-.14.06h-.54ZM63.45,44.29c-.06,0-.1-.02-.14-.06s-.06-.08-.06-.14v-4.08c0-.06.02-.1.06-.14s.08-.06.14-.06h.41c.06,0,.1.02.14.06s.06.08.06.14v4.08c0,.06-.02.1-.06.14s-.08.06-.14.06h-.41Z"/>
        <path class="cls-3" d="M65.27,44.28c-.06,0-.1-.02-.14-.06s-.06-.08-.06-.14v-4.08c0-.06.02-.1.06-.14s.08-.06.14-.06h.4c.06,0,.1.02.14.06s.06.08.06.14v.38c.15-.19.34-.36.56-.48.23-.12.51-.18.87-.18s.69.08.95.25.46.39.59.68c.13.29.2.62.2,1.01v2.42c0,.06-.02.1-.06.14s-.08.06-.14.06h-.43c-.06,0-.1-.02-.14-.06s-.06-.08-.06-.14v-2.38c0-.4-.1-.72-.29-.95s-.48-.34-.86-.34c-.36,0-.64.11-.85.34s-.32.54-.32.95v2.38c0,.06-.02.1-.06.14s-.08.06-.14.06h-.43,0Z"/>
        <path class="cls-3" d="M71.77,46.17c-.39,0-.71-.06-.95-.16-.25-.1-.44-.23-.59-.38-.14-.15-.24-.29-.3-.44s-.09-.27-.1-.35c0-.06,0-.11.06-.15.05-.04.09-.06.14-.06h.41c.06,0,.09,0,.13.04.04.02.06.07.08.15.04.08.08.18.16.28.06.11.17.2.32.28s.34.12.61.12.5-.04.68-.11c.18-.07.32-.2.41-.38s.14-.43.14-.74v-.59c-.14.17-.32.32-.54.44s-.5.17-.84.17-.6-.06-.83-.17-.41-.27-.56-.46-.26-.41-.33-.66-.11-.5-.13-.77v-.47c0-.27.06-.52.13-.77s.18-.47.33-.66c.15-.19.33-.35.56-.46s.5-.17.83-.17c.34,0,.62.06.85.19s.41.28.55.47v-.37c0-.06.02-.11.06-.15s.08-.06.14-.06h.39c.06,0,.11.02.15.06.04.04.06.09.06.15v4.17c0,.39-.06.73-.19,1.02s-.34.53-.63.71-.69.26-1.19.26h.02ZM71.75,43.63c.28,0,.51-.06.69-.2.17-.13.3-.29.39-.5s.13-.4.14-.61v-.59c0-.2-.05-.41-.14-.61-.08-.2-.21-.37-.39-.5-.17-.13-.4-.2-.69-.2s-.51.06-.69.19-.29.29-.37.5-.12.43-.13.67v.46c0,.24.06.47.13.67.07.21.2.38.37.5.17.13.4.19.69.19Z"/>
        <path class="cls-3" d="M76.8,44.28c-.06,0-.11-.02-.15-.06s-.06-.08-.06-.14v-5.61c0-.06.02-.11.06-.15s.08-.06.15-.06h3.55c.06,0,.11.02.15.06s.06.09.06.15v.33c0,.06-.02.11-.06.15s-.08.06-.15.06h-2.92v1.88h2.74c.06,0,.11.02.15.06s.06.09.06.15v.32c0,.06-.02.1-.06.14s-.08.06-.15.06h-2.74v1.96h2.99c.06,0,.11.02.15.06s.06.08.06.15v.34c0,.06-.02.1-.06.14s-.08.06-.15.06h-3.62v-.02Z"/>
        <path class="cls-3" d="M81.14,44.28s-.09-.02-.13-.06-.06-.07-.06-.13c0-.02,0-.04,0-.06s.03-.06.05-.09l1.5-1.96-1.4-1.85s-.04-.06-.05-.08c0-.02,0-.05,0-.06,0-.06.02-.09.06-.13s.07-.06.13-.06h.44c.06,0,.11.02.14.05s.06.06.08.09l1.15,1.49,1.15-1.48s.05-.06.08-.09c.03-.04.08-.06.14-.06h.42c.06,0,.09.02.13.06s.06.07.06.13c0,.03,0,.05,0,.06,0,.03-.03.06-.05.08l-1.41,1.86,1.5,1.94s.04.06.05.08c0,.03,0,.05,0,.06,0,.06-.02.09-.06.13s-.07.06-.13.06h-.46c-.06,0-.1-.02-.14-.05s-.06-.06-.08-.08l-1.21-1.57-1.21,1.57s-.05.05-.08.08-.08.05-.14.05h-.45Z"/>
        <path class="cls-3" d="M85.84,45.91c-.06,0-.1-.02-.14-.06s-.06-.08-.06-.14v-5.71c0-.06.02-.1.06-.14s.08-.06.14-.06h.39c.06,0,.1.02.14.06s.06.08.06.14v.38c.14-.19.32-.35.55-.47.23-.13.51-.19.86-.19.32,0,.6.06.82.17.23.11.41.26.56.45.15.19.26.4.33.64.07.24.11.5.12.77v.59c0,.27-.05.52-.12.77-.07.25-.18.46-.33.64s-.33.34-.56.45c-.23.11-.5.17-.82.17s-.62-.06-.84-.18c-.23-.12-.41-.28-.55-.46v1.99c0,.06-.02.1-.06.14s-.08.06-.15.06h-.41ZM87.66,43.67c.29,0,.53-.06.7-.19s.29-.29.37-.5.12-.43.13-.67v-.5c0-.24-.06-.47-.13-.67-.07-.21-.19-.38-.37-.5-.17-.13-.4-.19-.7-.19s-.5.06-.68.2c-.17.13-.3.3-.39.5-.08.2-.13.41-.14.62v.67c0,.2.06.39.14.6.09.19.22.36.4.48.17.13.4.19.67.19v-.04Z"/>
        <path class="cls-3" d="M92.19,44.37c-.59,0-1.06-.18-1.41-.54-.35-.37-.54-.86-.58-1.49v-.57c.02-.4.12-.76.28-1.07.17-.3.39-.54.68-.71.29-.17.62-.25,1.02-.25.43,0,.8.09,1.09.28s.52.44.67.78c.16.34.23.73.23,1.18v.15c0,.06-.02.11-.06.15s-.08.06-.14.06h-2.97v.07c0,.24.06.45.16.66.09.2.22.37.39.5s.38.19.62.19c.2,0,.38-.03.51-.09.14-.06.25-.14.34-.21s.15-.14.17-.17c.06-.07.09-.12.12-.14s.07-.02.14-.02h.41c.06,0,.1.02.14.05s.06.07.05.14c0,.08-.06.19-.14.31-.08.12-.21.25-.37.37s-.36.22-.59.29c-.23.07-.5.12-.79.12l.02-.03ZM91.03,41.73h2.36v-.03c0-.26-.05-.49-.14-.69s-.23-.36-.4-.48-.39-.17-.63-.17-.46.06-.63.17c-.17.12-.31.28-.4.48-.09.2-.14.43-.14.69v.03h0Z"/>
        <path class="cls-3" d="M95.09,44.28c-.06,0-.1-.02-.14-.06s-.06-.08-.06-.14v-4.07c0-.06.02-.11.06-.15s.08-.06.14-.06h.39c.06,0,.11.02.15.06.04.04.06.09.06.15v.38c.11-.19.28-.34.47-.44.2-.1.44-.15.73-.15h.34c.06,0,.1.02.14.06s.06.08.06.14v.35c0,.06-.02.1-.06.14s-.08.06-.14.06h-.51c-.31,0-.55.09-.73.27-.17.18-.27.42-.27.73v2.52c0,.06-.02.1-.06.14-.04.04-.09.06-.15.06h-.42v.02Z"/>
        <path class="cls-3" d="M99.56,44.28c-.32,0-.58-.06-.78-.18s-.35-.29-.44-.52c-.09-.23-.14-.5-.14-.81v-2.27h-.67c-.06,0-.1-.02-.14-.06s-.06-.08-.06-.14v-.29c0-.06.02-.1.06-.14s.08-.06.14-.06h.67v-1.43c0-.06.02-.1.06-.14s.08-.06.14-.06h.4c.06,0,.1.02.14.06s.06.08.06.14v1.43h1.06c.06,0,.1.02.14.06s.06.08.06.14v.29c0,.06-.02.1-.06.14s-.08.06-.14.06h-1.06v2.21c0,.27.05.48.14.63s.26.23.49.23h.52c.06,0,.1.02.14.06s.06.08.06.14v.31c0,.06-.02.1-.06.14s-.08.06-.14.06h-.6.02Z"/>
        <path class="cls-3" d="M102.37,44.37c-.32,0-.6-.04-.83-.12s-.41-.17-.56-.29c-.15-.11-.25-.23-.32-.34s-.11-.2-.12-.28c0-.06.02-.11.06-.15s.09-.06.14-.06h.38s.06,0,.08,0c.02,0,.05.04.08.07.07.08.16.16.25.24s.2.15.34.2.3.07.5.07c.29,0,.53-.06.73-.17s.28-.28.28-.5c0-.15-.04-.26-.12-.34-.07-.08-.21-.17-.41-.23-.2-.06-.47-.14-.81-.21-.34-.08-.62-.17-.82-.29s-.34-.26-.43-.42-.13-.35-.13-.55.06-.41.19-.62c.13-.2.31-.36.55-.49.25-.13.55-.19.92-.19.29,0,.55.04.76.11.21.07.39.17.52.28s.24.22.31.33c.06.11.11.2.11.28,0,.06,0,.1-.06.14-.04.04-.08.06-.14.06h-.36s-.07,0-.1-.03-.05-.04-.07-.06c-.06-.07-.13-.15-.2-.22s-.17-.14-.3-.18c-.12-.05-.28-.07-.49-.07-.28,0-.5.06-.64.18-.15.12-.21.28-.21.46,0,.11.03.2.09.29.06.08.18.17.36.23s.44.15.79.22c.38.07.68.17.89.3.22.13.38.28.47.44s.14.36.14.58c0,.24-.07.46-.21.66s-.35.36-.62.48c-.28.12-.61.17-1.01.17h0Z"/>
        <path class="cls-3" d="M106.94,44.28c-.06,0-.11-.02-.15-.06s-.06-.08-.06-.14v-5.61c0-.06.02-.11.06-.15s.08-.06.15-.06h.43c.06,0,.11.02.15.06s.06.09.06.15v2.13l2.3-2.2s.06-.06.12-.08c.06-.04.13-.06.22-.06h.47s.08.02.12.06.06.07.06.12,0,.08-.04.11l-2.65,2.6,2.83,2.85s.05.07.05.12-.02.08-.06.12-.07.06-.12.06h-.48c-.1,0-.17-.02-.22-.06-.06-.04-.09-.06-.11-.08l-2.46-2.42v2.36c0,.06-.02.1-.06.14s-.09.06-.15.06h-.45Z"/>
        <path class="cls-3" d="M111.65,44.28c-.06,0-.1-.02-.14-.06s-.06-.08-.06-.14v-4.08c0-.06.02-.1.06-.14s.08-.06.14-.06h.4c.06,0,.1.02.14.06s.06.08.06.14v.38c.15-.19.34-.36.56-.48.23-.12.51-.18.87-.18s.69.08.95.25.46.39.59.68c.13.29.2.62.2,1.01v2.42c0,.06-.02.1-.06.14s-.08.06-.14.06h-.43c-.06,0-.1-.02-.14-.06s-.06-.08-.06-.14v-2.38c0-.4-.1-.72-.29-.95s-.48-.34-.86-.34c-.36,0-.64.11-.85.34s-.32.54-.32.95v2.38c0,.06-.02.1-.06.14s-.08.06-.14.06h-.43,0Z"/>
        <path class="cls-3" d="M118.14,44.37c-.43,0-.8-.08-1.09-.25s-.51-.39-.67-.69c-.16-.29-.24-.63-.26-1.01v-.74c.02-.39.1-.73.27-1.01.16-.29.39-.52.67-.69.29-.17.65-.25,1.08-.25s.79.08,1.08.25c.29.17.51.39.67.69s.25.63.27,1.01v.74c-.02.38-.1.72-.26,1.01s-.38.52-.67.69-.65.25-1.09.25h0ZM118.14,43.71c.36,0,.64-.11.85-.34s.33-.56.34-.99v-.66c-.02-.43-.13-.76-.34-.99s-.5-.34-.85-.34-.64.11-.85.34-.33.56-.34.99v.66c0,.43.13.76.34.99s.5.34.85.34Z"/>
        <path class="cls-3" d="M121.97,44.28c-.07,0-.13-.02-.17-.06-.04-.04-.07-.09-.1-.16l-1.22-3.98s-.02-.06-.02-.08c0-.06.02-.09.06-.13s.08-.06.13-.06h.38c.06,0,.11.02.15.06.04.04.06.06.06.09l.95,3.24,1.02-3.2s.04-.08.07-.12c.04-.04.09-.06.17-.06h.29c.07,0,.13.02.17.06.04.04.06.08.06.12l1.02,3.2.95-3.24s.03-.06.06-.09c.04-.04.08-.06.15-.06h.38c.06,0,.09.02.13.06s.06.07.06.13c0,.03,0,.06-.02.08l-1.22,3.98c-.02.06-.05.12-.09.16-.05.04-.1.06-.18.06h-.34c-.07,0-.14-.02-.18-.06s-.08-.09-.1-.16l-1-3.08-1,3.08c-.03.06-.06.12-.1.16-.05.04-.11.06-.19.06h-.34.03Z"/>
        <path class="cls-3" d="M127.54,44.28c-.06,0-.1-.02-.14-.06s-.06-.08-.06-.14v-5.71c0-.06.02-.1.06-.14s.08-.06.14-.06h.4c.06,0,.11.02.15.06.04.04.06.08.06.14v5.71c0,.06-.02.1-.06.14s-.08.06-.15.06h-.4Z"/>
        <path class="cls-3" d="M130.85,44.37c-.59,0-1.06-.18-1.41-.54-.35-.37-.54-.86-.58-1.49v-.57c.02-.4.12-.76.28-1.07.17-.3.39-.54.68-.71.29-.17.62-.25,1.02-.25.43,0,.8.09,1.09.28s.52.44.67.78c.16.34.23.73.23,1.18v.15c0,.06-.02.11-.06.15s-.08.06-.14.06h-2.97v.07c0,.24.06.45.16.66.09.2.22.37.39.5.17.13.38.19.62.19.2,0,.38-.03.51-.09s.25-.14.34-.21.15-.14.17-.17c.06-.07.09-.12.12-.14s.07-.02.14-.02h.41c.06,0,.1.02.14.05s.06.07.05.14c0,.08-.06.19-.14.31s-.21.25-.37.37-.36.22-.59.29c-.23.07-.5.12-.79.12l.02-.03ZM129.69,41.73h2.36v-.03c0-.26-.05-.49-.14-.69-.09-.2-.23-.36-.4-.48s-.39-.17-.63-.17-.46.06-.63.17c-.17.12-.31.28-.4.48s-.14.43-.14.69v.03h0Z"/>
        <path class="cls-3" d="M135.18,44.37c-.31,0-.59-.06-.82-.17s-.41-.27-.56-.46-.26-.41-.33-.66-.11-.5-.13-.78v-.51c0-.27.06-.52.13-.77s.18-.47.33-.66c.15-.19.33-.35.56-.46s.5-.17.82-.17c.34,0,.62.06.84.18.22.12.4.27.55.45v-1.97c0-.06.02-.1.06-.14s.08-.06.14-.06h.41c.06,0,.1.02.14.06s.06.08.06.14v5.71c0,.06-.02.1-.06.14s-.08.06-.14.06h-.39c-.06,0-.11-.02-.15-.06-.04-.04-.06-.08-.06-.14v-.36c-.15.18-.33.34-.56.46s-.51.18-.86.18v-.02ZM135.36,43.67c.28,0,.51-.06.69-.2.17-.13.3-.3.39-.5.08-.2.13-.41.14-.62v-.66c0-.2-.06-.39-.14-.6-.09-.19-.22-.36-.39-.48-.17-.13-.4-.19-.67-.19-.29,0-.52.06-.7.19-.17.13-.29.29-.37.5-.07.21-.12.43-.13.67v.5c0,.24.06.47.13.67.07.21.2.38.37.5.17.13.4.19.7.19v.03Z"/>
        <path class="cls-3" d="M140.14,46.17c-.39,0-.71-.06-.95-.16-.25-.1-.44-.23-.59-.38-.14-.15-.24-.29-.3-.44s-.09-.27-.1-.35c0-.06,0-.11.06-.15s.09-.06.14-.06h.41c.06,0,.09,0,.13.04.04.02.06.07.08.15.04.08.08.18.16.28.06.11.17.2.32.28.15.07.34.12.61.12s.5-.04.68-.11c.18-.07.32-.2.41-.38s.14-.43.14-.74v-.59c-.14.17-.32.32-.54.44-.22.12-.5.17-.84.17s-.6-.06-.83-.17-.41-.27-.56-.46-.26-.41-.33-.66-.11-.5-.13-.77v-.47c0-.27.06-.52.13-.77s.18-.47.33-.66c.15-.19.33-.35.56-.46s.5-.17.83-.17c.34,0,.62.06.85.19s.41.28.55.47v-.37c0-.06.02-.11.06-.15s.08-.06.14-.06h.39c.06,0,.11.02.15.06.04.04.06.09.06.15v4.17c0,.39-.06.73-.19,1.02s-.34.53-.63.71-.69.26-1.19.26h.02ZM140.13,43.63c.28,0,.51-.06.69-.2.17-.13.3-.29.39-.5s.13-.4.14-.61v-.59c0-.2-.05-.41-.14-.61-.08-.2-.21-.37-.39-.5s-.4-.2-.69-.2-.51.06-.69.19-.29.29-.37.5c-.07.21-.12.43-.13.67v.46c0,.24.06.47.13.67.07.21.2.38.37.5.17.13.4.19.69.19Z"/>
        <path class="cls-3" d="M144.88,44.37c-.59,0-1.06-.18-1.41-.54-.35-.37-.54-.86-.58-1.49v-.57c.02-.4.12-.76.28-1.07.17-.3.39-.54.68-.71.29-.17.62-.25,1.02-.25.43,0,.8.09,1.09.28s.52.44.67.78c.16.34.23.73.23,1.18v.15c0,.06-.02.11-.06.15s-.08.06-.14.06h-2.97v.07c0,.24.06.45.16.66.09.2.22.37.39.5.17.13.38.19.62.19.2,0,.38-.03.51-.09s.25-.14.34-.21.15-.14.17-.17c.06-.07.09-.12.12-.14s.07-.02.14-.02h.41c.06,0,.1.02.14.05s.06.07.05.14c0,.08-.06.19-.14.31s-.21.25-.37.37-.36.22-.59.29c-.23.07-.5.12-.79.12l.02-.03ZM143.72,41.73h2.36v-.03c0-.26-.05-.49-.14-.69-.09-.2-.23-.36-.4-.48s-.39-.17-.63-.17-.46.06-.63.17c-.17.12-.31.28-.4.48s-.14.43-.14.69v.03h0Z"/>
        <path class="cls-3" d="M150.74,44.28c-.06,0-.1-.02-.14-.06s-.06-.08-.06-.14v-5.05h-1.65c-.06,0-.1-.02-.14-.06s-.06-.08-.06-.14v-.36c0-.06.02-.11.06-.15s.08-.06.14-.06h4.14c.06,0,.11.02.15.06.04.04.06.09.06.15v.36c0,.06-.02.1-.06.14s-.09.06-.15.06h-1.64v5.05c0,.06-.02.1-.06.14s-.09.06-.15.06h-.45Z"/>
        <path class="cls-3" d="M154.75,44.37c-.43,0-.8-.08-1.09-.25s-.51-.39-.67-.69-.24-.63-.26-1.01v-.74c.02-.39.1-.73.27-1.01.16-.29.39-.52.67-.69.29-.17.65-.25,1.08-.25s.79.08,1.08.25c.29.17.51.39.67.69s.25.63.27,1.01v.74c-.02.38-.1.72-.26,1.01s-.38.52-.67.69c-.29.17-.65.25-1.09.25h0ZM154.75,43.71c.36,0,.64-.11.85-.34s.33-.56.34-.99v-.66c-.02-.43-.13-.76-.34-.99s-.5-.34-.85-.34-.64.11-.85.34-.33.56-.34.99v.66c0,.43.13.76.34.99s.5.34.85.34Z"/>
        <path class="cls-3" d="M161.31,44.37c-.5,0-.92-.07-1.26-.23s-.6-.35-.78-.6c-.18-.25-.28-.5-.28-.78,0-.05.02-.09.06-.13s.08-.06.14-.06h.44c.06,0,.12.02.16.06s.06.07.06.12c.03.14.1.28.21.4.11.14.27.25.47.34s.47.14.79.14c.5,0,.85-.09,1.08-.27.23-.17.35-.4.35-.7,0-.2-.06-.36-.18-.49-.12-.12-.31-.23-.56-.33s-.58-.2-.98-.32c-.42-.12-.76-.25-1.04-.39s-.48-.32-.62-.53c-.14-.21-.2-.48-.2-.81,0-.31.08-.59.25-.83.17-.25.4-.44.72-.58.31-.15.69-.21,1.14-.21.36,0,.67.05.94.14.27.09.49.22.67.38.17.16.31.33.4.5.09.18.14.36.15.53,0,.04-.02.08-.05.12s-.07.06-.14.06h-.46s-.08,0-.13-.04c-.05-.02-.07-.06-.1-.13-.04-.24-.17-.43-.39-.6-.23-.16-.52-.24-.89-.24s-.67.07-.91.21c-.23.15-.35.37-.35.67,0,.19.06.36.17.49s.28.24.51.34c.24.1.54.2.92.31.46.13.84.26,1.13.4.29.14.5.31.65.52.14.21.21.48.21.81,0,.36-.09.67-.28.93-.19.26-.45.45-.8.59-.34.14-.74.2-1.21.2h0Z"/>
        <path class="cls-3" d="M166.02,44.28c-.32,0-.58-.06-.78-.18s-.35-.29-.44-.52c-.09-.23-.14-.5-.14-.81v-2.27h-.67c-.06,0-.1-.02-.14-.06s-.06-.08-.06-.14v-.29c0-.06.02-.1.06-.14s.08-.06.14-.06h.67v-1.43c0-.06.02-.1.06-.14s.08-.06.14-.06h.4c.06,0,.1.02.14.06s.06.08.06.14v1.43h1.06c.06,0,.1.02.14.06s.06.08.06.14v.29c0,.06-.02.1-.06.14s-.08.06-.14.06h-1.06v2.21c0,.27.05.48.14.63.09.16.26.23.49.23h.52c.06,0,.1.02.14.06s.06.08.06.14v.31c0,.06-.02.1-.06.14s-.08.06-.14.06h-.6.02Z"/>
        <path class="cls-3" d="M168.96,44.37c-.37,0-.68-.08-.94-.25s-.45-.39-.58-.68c-.13-.29-.2-.62-.2-1.01v-2.42c0-.06.02-.1.06-.14s.08-.06.14-.06h.43c.06,0,.1.02.14.06s.06.08.06.14v2.38c0,.85.38,1.28,1.12,1.28.36,0,.64-.11.85-.34s.32-.54.32-.95v-2.38c0-.06.02-.1.06-.14s.08-.06.14-.06h.42c.06,0,.11.02.15.06.04.04.06.08.06.14v4.08c0,.06-.02.1-.06.14s-.08.06-.15.06h-.39c-.06,0-.1-.02-.14-.06s-.06-.08-.06-.14v-.38c-.16.2-.34.36-.56.48s-.51.18-.87.18h0Z"/>
        <path class="cls-3" d="M173.75,44.37c-.31,0-.59-.06-.82-.17s-.41-.27-.56-.46-.26-.41-.33-.66-.11-.5-.13-.78v-.51c0-.27.06-.52.13-.77s.18-.47.33-.66c.15-.19.33-.35.56-.46s.5-.17.82-.17c.34,0,.62.06.84.18.22.12.4.27.55.45v-1.97c0-.06.02-.1.06-.14s.08-.06.14-.06h.41c.06,0,.1.02.14.06s.06.08.06.14v5.71c0,.06-.02.1-.06.14s-.08.06-.14.06h-.39c-.06,0-.11-.02-.15-.06-.04-.04-.06-.08-.06-.14v-.36c-.15.18-.33.34-.56.46s-.51.18-.86.18v-.02ZM173.94,43.67c.28,0,.51-.06.69-.2.17-.13.3-.3.39-.5.08-.2.13-.41.14-.62v-.66c0-.2-.06-.39-.14-.6-.09-.19-.22-.36-.39-.48-.17-.13-.4-.19-.67-.19-.29,0-.52.06-.7.19-.17.13-.29.29-.37.5-.07.21-.12.43-.13.67v.5c0,.24.06.47.13.67.07.21.2.38.37.5.17.13.4.19.7.19v.03Z"/>
        <path class="cls-3" d="M178.67,44.37c-.59,0-1.06-.18-1.41-.54-.35-.37-.54-.86-.58-1.49v-.57c.02-.4.12-.76.28-1.07.17-.3.39-.54.68-.71.29-.17.62-.25,1.02-.25.43,0,.8.09,1.09.28s.52.44.67.78c.16.34.23.73.23,1.18v.15c0,.06-.02.11-.06.15s-.08.06-.14.06h-2.97v.07c0,.24.06.45.16.66.09.2.22.37.39.5.17.13.38.19.62.19.2,0,.38-.03.51-.09s.25-.14.34-.21c.08-.07.15-.14.17-.17.06-.07.09-.12.12-.14s.07-.02.14-.02h.41c.06,0,.1.02.14.05s.06.07.05.14c0,.08-.06.19-.14.31s-.21.25-.37.37-.36.22-.59.29c-.23.07-.5.12-.79.12l.02-.03ZM177.5,41.73h2.36v-.03c0-.26-.05-.49-.14-.69-.09-.2-.23-.36-.4-.48s-.39-.17-.63-.17-.46.06-.63.17c-.17.12-.31.28-.4.48s-.14.43-.14.69v.03h0Z"/>
        <path class="cls-3" d="M181.56,44.28c-.06,0-.1-.02-.14-.06s-.06-.08-.06-.14v-4.08c0-.06.02-.1.06-.14s.08-.06.14-.06h.4c.06,0,.1.02.14.06s.06.08.06.14v.38c.15-.19.34-.36.56-.48.23-.12.51-.18.87-.18s.69.08.95.25.46.39.59.68c.13.29.2.62.2,1.01v2.42c0,.06-.02.1-.06.14s-.08.06-.14.06h-.43c-.06,0-.1-.02-.14-.06s-.06-.08-.06-.14v-2.38c0-.4-.1-.72-.29-.95s-.48-.34-.86-.34c-.36,0-.64.11-.85.34s-.32.54-.32.95v2.38c0,.06-.02.1-.06.14s-.08.06-.14.06h-.43,0Z"/>
        <path class="cls-3" d="M187.91,44.28c-.32,0-.58-.06-.78-.18s-.35-.29-.44-.52c-.09-.23-.14-.5-.14-.81v-2.27h-.67c-.06,0-.1-.02-.14-.06s-.06-.08-.06-.14v-.29c0-.06.02-.1.06-.14s.08-.06.14-.06h.67v-1.43c0-.06.02-.1.06-.14s.08-.06.14-.06h.4c.06,0,.1.02.14.06s.06.08.06.14v1.43h1.06c.06,0,.1.02.14.06s.06.08.06.14v.29c0,.06-.02.1-.06.14s-.08.06-.14.06h-1.06v2.21c0,.27.05.48.14.63.09.16.26.23.49.23h.52c.06,0,.1.02.14.06s.06.08.06.14v.31c0,.06-.02.1-.06.14s-.08.06-.14.06h-.6.02Z"/>
        <path class="cls-3" d="M190.73,44.37c-.32,0-.6-.04-.83-.12s-.41-.17-.56-.29c-.15-.11-.25-.23-.32-.34s-.11-.2-.12-.28c0-.06.02-.11.06-.15s.09-.06.14-.06h.38s.06,0,.08,0c.02,0,.05.04.08.07.07.08.16.16.25.24s.2.15.34.2.3.07.5.07c.29,0,.53-.06.73-.17s.28-.28.28-.5c0-.15-.04-.26-.12-.34-.07-.08-.21-.17-.41-.23s-.47-.14-.81-.21c-.34-.08-.62-.17-.82-.29s-.34-.26-.43-.42c-.08-.17-.13-.35-.13-.55s.06-.41.19-.62c.13-.2.31-.36.55-.49.25-.13.55-.19.92-.19.29,0,.55.04.76.11.21.07.39.17.52.28s.24.22.31.33c.06.11.11.2.11.28,0,.06,0,.1-.06.14-.04.04-.08.06-.14.06h-.36s-.07,0-.1-.03c-.03-.02-.05-.04-.07-.06-.06-.07-.13-.15-.2-.22s-.17-.14-.3-.18c-.12-.05-.28-.07-.49-.07-.28,0-.5.06-.64.18-.15.12-.21.28-.21.46,0,.11.03.2.09.29.06.08.18.17.36.23s.44.15.79.22c.38.07.68.17.89.3.22.13.38.28.47.44.09.17.14.36.14.58,0,.24-.07.46-.21.66s-.35.36-.62.48c-.28.12-.61.17-1.01.17h0Z"/>
      </g>
      <g>
        <path class="cls-3" d="M201.36,37.48c2.18-8.03,6.5-9.08,8.28-11.82,2.58-3.96,1.82-7.47,1.82-7.47-.78,6.21-5.03,7.17-8.92,12.24-.95,1.24-1.61,2.88-2.05,4.71-.44-1.84-1.1-3.48-2.05-4.71-3.89-5.07-8.14-6.04-8.92-12.24,0,0-.76,3.51,1.82,7.47,1.78,2.74,6.1,3.82,8.28,11.82"/>
        <path class="cls-3" d="M210.29,17.23c-.7,5.55-4.49,6.41-7.97,10.93-.84,1.1-1.43,2.57-1.84,4.21-.39-1.63-.98-3.1-1.84-4.21-3.48-4.53-7.27-5.39-7.97-10.93,0,0-.68,3.14,1.62,6.67,2.18,3.34,7.15,3.86,8.18,21.36,1.04-17.51,6-18.02,8.18-21.36,2.3-3.53,1.62-6.67,1.62-6.67h0Z"/>
        <path class="cls-3" d="M195.53,17.95c-.08.06-.15.15-.15.26,0,.13.08.24.19.28l-.41,1.16h1.06l-.41-1.16c.11-.05.19-.16.19-.28,0-.11-.06-.2-.15-.26v-1.51l1.98-.8-1.67.94,1.41.62v.86c-.46.62-.73,1.4-.73,2.24,0,2.09,1.7,3.79,3.79,3.79s3.79-1.7,3.79-3.79c0-.84-.28-1.62-.74-2.25v-.84l3.32-1.58-6.25-3.06-6.84,3.03,1.6.71v1.65l.02-.02Z"/>
      </g>
      <path class="cls-2" d="M27.43,41.62c-4.81-11-19.29-9.8-19.29-9.8L16.7,0c12.09,1.47,15.07,8.33,16.32,11.6-1.77-3.46-5.03-6.02-12.72-7.58l-6.73,25.02s12.68,2.61,13.85,12.58Z"/>
      <path class="cls-1" d="M15.24,1.36l-.63,2.36-1.34-.31-8.47,31.5s16.91-.71,21.95,9.03c0,0-3.77-6.09-26.74-6.46L10.04.14l5.2,1.23h0Z"/>
      <g>
        <path class="cls-2" d="M28.61,33.25v-15.31c0-.3-.16-.46-.46-.46h-4.01c-.39,0-.7-.46-.7-2s.3-1.88.7-1.88h13.43c.37,0,.7.37.7,1.88s-.33,2-.7,2h-4.01c-.3,0-.46.16-.46.46v15.31c0,.37-.39.7-2.25.7s-2.25-.33-2.25-.7h0Z"/>
        <path class="cls-2" d="M36.66,26.6c0-5.99,3.92-8.45,7.81-8.45,4.13,0,6.17,1.95,6.17,4.46,0,4.07-5.29,5.71-8.91,5.8.67,1.85,2.37,2.43,4.1,2.43,2.34,0,3.64-1.37,4.13-1.37.21,0,.42.12.42.42,0,.49-.21,1.58-.58,2.49-.24.63-2.16,1.85-4.8,1.85-4.8,0-8.35-2.49-8.35-7.66h0ZM41.46,26.11c2.43-.24,4.65-1.55,4.65-3.76,0-.85-.67-1.46-1.49-1.46-1.51,0-3.04,1.4-3.16,5.22Z"/>
        <path class="cls-2" d="M52.18,33.22V12.8c0-.39.39-.73,2.25-.73s2.25.33,2.25.73v11.18c2-.67,3.86-2.88,4.8-4.99.16-.33.28-.55.63-.55h3.07c.33,0,.51.16.51.42,0,.21-.09.49-.28.88-.88,1.85-2.52,4.41-4.46,5.74,1.18.67,2,2,3.37,4.43.55.97.95,1.21,1.79,1.21h.63c.24,0,.39.12.39.39,0,.67-2,2.71-3.46,2.71-1.18,0-1.97-.51-2.49-1.4-1.95-3.41-2.83-5.01-3.46-5.29-.24.06-1.04.33-1.06.37v5.29c0,.37-.42.73-2.25.73s-2.25-.37-2.25-.73h0Z"/>
        <path class="cls-2" d="M67.28,31.58c0-.67,1.55-2.43,2.07-2.43.58,0,2.22,1.97,4.43,1.97,1.09,0,1.64-.58,1.64-1.46,0-1.16-1.55-1.58-3.25-2.19-2.07-.76-4.34-1.76-4.34-4.31,0-3.04,2.64-5.01,6.47-5.01,3.41,0,5.04,1.4,5.04,2.09s-1.46,2.43-2.07,2.43c-.42,0-1.51-1.58-3.37-1.58-1,0-1.67.61-1.67,1.43,0,1.06,1.18,1.46,2.62,1.95,2.22.73,5.04,1.58,5.04,4.65s-2.62,5.13-6.22,5.13-6.38-2.04-6.38-2.67h0Z"/>
      </g>
      <g>
        <path class="cls-3" d="M95.66,32.7c-1.12.79-2.62,1.55-4.65,1.55-2.92,0-5.08-1.61-5.08-4.46,0-3.53,2.4-4.77,6.8-5.8,1.46-.33,2.19-.61,2.19-1.06,0-.88-.79-1.49-2.49-1.49-2.37,0-4.25,1.4-4.74,1.4-.28,0-.39-.16-.39-.46,0-.49.21-1.51.63-2.52.3-.67,2.49-1.7,5.13-1.7,4.65,0,6.41,2.04,6.41,6.11v5.53c0,.95.46,1.3,1.18,1.3h.61c.3,0,.42.16.42.39,0,.73-1.67,2.76-3.13,2.76-1.79,0-2.92-1.55-2.92-1.55h.02ZM92.72,31.19c1.34,0,2.28-.82,2.28-1.4v-3.25c0-.18-.09-.33-.33-.33-.39,0-1,.16-1.67.46-1.28.46-2.67,1.16-2.67,2.55,0,1.3,1,1.97,2.4,1.97h0Z"/>
        <path class="cls-3" d="M101.78,26.56c0-5.68,3.89-8.42,8.42-8.42,3.04,0,4.59,1.06,4.59,1.7,0,.7-1.3,2.62-1.91,2.62-.42,0-1.25-.97-2.95-.97-1.46,0-3.28,1.09-3.28,4.71,0,3.25,1.83,4.65,4.22,4.65s3.64-1.28,4.16-1.28c.18,0,.39.12.39.42,0,.58-.21,1.61-.63,2.49-.33.67-2.31,1.76-4.74,1.76-4.34,0-8.26-2.28-8.26-7.68h-.02Z"/>
        <path class="cls-3" d="M125.9,32.7c-1.12.79-2.62,1.55-4.65,1.55-2.92,0-5.08-1.61-5.08-4.46,0-3.53,2.4-4.77,6.8-5.8,1.46-.33,2.19-.61,2.19-1.06,0-.88-.79-1.49-2.49-1.49-2.37,0-4.25,1.4-4.74,1.4-.28,0-.39-.16-.39-.46,0-.49.21-1.51.63-2.52.3-.67,2.49-1.7,5.13-1.7,4.65,0,6.41,2.04,6.41,6.11v5.53c0,.95.46,1.3,1.18,1.3h.61c.3,0,.42.16.42.39,0,.73-1.67,2.76-3.13,2.76-1.79,0-2.92-1.55-2.92-1.55h.02ZM122.95,31.19c1.34,0,2.28-.82,2.28-1.4v-3.25c0-.18-.09-.33-.33-.33-.39,0-1,.16-1.67.46-1.28.46-2.67,1.16-2.67,2.55,0,1.3,1,1.97,2.4,1.97h0Z"/>
        <path class="cls-3" d="M132.01,27.11c0-6.99,4.89-8.96,7.72-8.96,1.43,0,2.52.55,2.52.55v-5.89c0-.39.39-.73,2.25-.73s2.25.33,2.25.73v16.98c0,.95.46,1.3,1.16,1.3h.61c.33,0,.46.16.46.39,0,.73-1.74,2.76-3.16,2.76-1.83,0-2.95-1.55-2.95-1.55,0,0-1.61,1.55-4.25,1.55-3.25,0-6.59-2.16-6.59-7.14h-.02ZM142.22,22.4c0-.58-.67-1.16-1.64-1.16-1.74,0-3.74,1.28-3.74,5.53,0,3.28,1.64,4.41,3.13,4.41,1.28,0,2.25-.95,2.25-1.7v-7.08Z"/>
        <path class="cls-3" d="M149.02,26.6c0-5.99,3.92-8.45,7.81-8.45,4.13,0,6.17,1.95,6.17,4.46,0,4.07-5.29,5.71-8.91,5.8.67,1.85,2.37,2.43,4.1,2.43,2.34,0,3.64-1.37,4.13-1.37.21,0,.42.12.42.42,0,.49-.21,1.58-.58,2.49-.24.63-2.16,1.85-4.8,1.85-4.8,0-8.35-2.49-8.35-7.66h0ZM153.82,26.11c2.43-.24,4.65-1.55,4.65-3.76,0-.85-.67-1.46-1.49-1.46-1.51,0-3.04,1.4-3.16,5.22Z"/>
        <path class="cls-3" d="M183.11,30.64v-7.2c0-1.21-.73-1.85-1.88-1.85-1.28,0-2.74,1.21-2.74,1.91v9.72c0,.37-.39.73-2.25.73s-2.25-.37-2.25-.73v-9.72c0-1.3-.91-1.91-1.97-1.91-1.28,0-2.64,1.06-2.64,1.95v9.69c0,.37-.39.73-2.25.73s-2.25-.37-2.25-.73v-10.63c0-1.3-.85-1.76-.85-2.25,0-.7,2.52-2.19,3.46-2.19s1.21.67,1.76,1.83c.61-.46,2.25-1.83,4.65-1.83,1.76,0,2.86.79,3.71,2.07,1.28-1.18,3.62-2.07,5.41-2.07,2.37,0,4.59,1.37,4.59,3.83v7.81c0,.95.46,1.3,1.16,1.3h.63c.33,0,.42.16.42.39,0,.7-1.67,2.76-3.16,2.76-2.25,0-3.55-1.37-3.55-3.62h0Z"/>
      </g>
      <g>
        <circle id="Oval" class="cls-3" cx="215.01" cy="6.91" r="6.33"/>
        <circle id="Oval-2" class="cls-3" cx="215.01" cy="6.91" r="5.02"/>
        <path id="Shape" class="cls-1" d="M217.9,9.65l-1.23-2.28c.21-.1.4-.24.58-.4.42-.43.64-1.02.6-1.62-.1-1.09-1.03-1.93-2.13-1.92h-2.66c-.12,0-.22.1-.22.22v6.11c0,.12.1.22.22.22h1.09c.12,0,.22-.1.22-.22v-2.19h.76l1.14,2.28c.04.07.11.12.19.12h1.25c.07,0,.15-.04.19-.1s.05-.15,0-.21h0ZM215.78,6.26h-1.42v-1.52h1.42c.42,0,.76.34.76.76s-.34.76-.76.76Z"/>
      </g>
    </g>
  </g>
</svg>